<svg width="134" height="129" viewBox="0 0 134 129" fill="none" xmlns="http://www.w3.org/2000/svg">
<ellipse cx="67" cy="64.5" rx="67" ry="64.5" fill="#D9D9D9"/>
<path d="M88.875 93.5H85.75V88.2906C85.7402 86.5023 85.4236 84.7289 84.8138 83.0477C84.7797 82.9559 84.7438 82.8709 84.7017 82.7835C84.1956 81.4035 83.4964 80.1023 82.625 78.9187L78.2503 73.0837C77.0365 71.4583 76.3789 69.4849 76.375 67.4563V64.3006C76.3821 61.816 77.3684 59.4344 79.12 57.6722L81.1738 55.6184C83.5601 53.2191 85.0931 50.103 85.5373 46.7484C85.539 46.705 85.5623 46.6687 85.5623 46.6248L85.5535 46.5819C85.6622 45.9165 85.7278 45.2448 85.75 44.571V37.25H88.875C89.7038 37.25 90.4987 36.9208 91.0847 36.3347C91.6708 35.7487 92 34.9538 92 34.125C92 33.2962 91.6708 32.5013 91.0847 31.9153C90.4987 31.3292 89.7038 31 88.875 31H45.125C44.2962 31 43.5014 31.3292 42.9153 31.9153C42.3293 32.5013 42 33.2962 42 34.125C42 34.9538 42.3293 35.7487 42.9153 36.3347C43.5014 36.9208 44.2962 37.25 45.125 37.25H48.25V44.571C48.2722 45.2448 48.3379 45.9165 48.4465 46.5819L48.4377 46.625C48.4377 46.6687 48.4609 46.7051 48.4627 46.7486C48.9069 50.1032 50.4398 53.2193 52.8261 55.6185L54.88 57.6724C56.6315 59.4345 57.6178 61.8161 57.625 64.3006V67.4562C57.6209 69.4846 56.9639 71.4577 55.7512 73.0837L51.3735 78.9185C50.5024 80.1028 49.8034 81.4044 49.2973 82.7847C49.2557 82.8713 49.2201 82.9554 49.1863 83.0462C48.5765 84.7279 48.2598 86.5018 48.25 88.2906V93.5H45.125C44.2962 93.5 43.5013 93.8292 42.9153 94.4152C42.3292 95.0013 42 95.7962 42 96.6249C42 97.4538 42.3292 98.2486 42.9153 98.8347C43.5013 99.4207 44.2962 99.7499 45.125 99.7499H88.875C89.7038 99.7499 90.4986 99.4207 91.0847 98.8347C91.6707 98.2486 92 97.4538 92 96.6249C92 95.7962 91.6707 95.0013 91.0847 94.4152C90.4986 93.8292 89.7038 93.5 88.875 93.5ZM54.5 43.5V37.25H79.5V43.5H54.5ZM57.2451 51.1996C56.8047 50.7572 56.4101 50.2716 56.0673 49.75H77.9327C77.5898 50.2715 77.1952 50.7572 76.7549 51.1996L74.7011 53.2534C72.2635 55.6767 70.7004 58.8414 70.2577 62.25H63.7421C63.2995 58.8413 61.7365 55.6765 59.2989 53.2531L57.2451 51.1996ZM60.7515 76.8312C62.5597 74.4084 63.6319 71.516 63.8399 68.5H70.1601C70.3679 71.5163 71.4407 74.4088 73.25 76.8312L76.3754 81H57.6238L60.7515 76.8312ZM79.5 93.5H54.5V88.2906C54.5087 87.9424 54.5371 87.5949 54.5851 87.25H79.4149C79.4629 87.5949 79.4913 87.9424 79.5 88.2906V93.5Z" fill="#4F4FEA"/>
</svg>
