<svg width="134" height="129" viewBox="0 0 134 129" fill="none" xmlns="http://www.w3.org/2000/svg">
<ellipse cx="67" cy="64.5" rx="67" ry="64.5" fill="#D9D9D9"/>
<path d="M37 44C37 42.4087 37.6321 40.8826 38.7574 39.7574C39.8826 38.6321 41.4087 38 43 38H91C92.5913 38 94.1174 38.6321 95.2426 39.7574C96.3679 40.8826 97 42.4087 97 44V77C97 78.5913 96.3679 80.1174 95.2426 81.2426C94.1174 82.3679 92.5913 83 91 83H77.242L69.121 91.121C68.5584 91.6834 67.7955 91.9994 67 91.9994C66.2045 91.9994 65.4416 91.6834 64.879 91.121L56.758 83H43C41.4087 83 39.8826 82.3679 38.7574 81.2426C37.6321 80.1174 37 78.5913 37 77V44ZM91 44H43V77H58C58.7956 77.0002 59.5585 77.3163 60.121 77.879L67 84.758L73.879 77.879C74.4415 77.3163 75.2044 77.0002 76 77H91V44Z" fill="#4F4FEA"/>
<path d="M71.5 60.5C71.5 61.6935 71.0259 62.8381 70.182 63.682C69.3381 64.5259 68.1935 65 67 65C65.8065 65 64.6619 64.5259 63.818 63.682C62.9741 62.8381 62.5 61.6935 62.5 60.5C62.5 59.3065 62.9741 58.1619 63.818 57.318C64.6619 56.4741 65.8065 56 67 56C68.1935 56 69.3381 56.4741 70.182 57.318C71.0259 58.1619 71.5 59.3065 71.5 60.5ZM83.5 60.5C83.5 61.6935 83.0259 62.8381 82.182 63.682C81.3381 64.5259 80.1935 65 79 65C77.8065 65 76.6619 64.5259 75.818 63.682C74.9741 62.8381 74.5 61.6935 74.5 60.5C74.5 59.3065 74.9741 58.1619 75.818 57.318C76.6619 56.4741 77.8065 56 79 56C80.1935 56 81.3381 56.4741 82.182 57.318C83.0259 58.1619 83.5 59.3065 83.5 60.5ZM59.5 60.5C59.5 61.6935 59.0259 62.8381 58.182 63.682C57.3381 64.5259 56.1935 65 55 65C53.8065 65 52.6619 64.5259 51.818 63.682C50.9741 62.8381 50.5 61.6935 50.5 60.5C50.5 59.3065 50.9741 58.1619 51.818 57.318C52.6619 56.4741 53.8065 56 55 56C56.1935 56 57.3381 56.4741 58.182 57.318C59.0259 58.1619 59.5 59.3065 59.5 60.5Z" fill="#4F4FEA"/>
</svg>
