<svg width="134" height="129" viewBox="0 0 134 129" fill="none" xmlns="http://www.w3.org/2000/svg">
<ellipse cx="67" cy="64.5" rx="67" ry="64.5" fill="#D9D9D9"/>
<path d="M74.5 74.625C74.5 75.6609 73.6609 76.5 72.625 76.5H61.375C60.3391 76.5 59.5 75.6609 59.5 74.625V69H37V85.875C37 88.875 39.625 91.5 42.625 91.5H91.375C94.375 91.5 97 88.875 97 85.875V69H74.5V74.625ZM91.375 50.25H82V44.625C82 41.625 79.375 39 76.375 39H57.625C54.625 39 52 41.625 52 44.625V50.25H42.625C39.625 50.25 37 52.875 37 55.875V65.25H97V55.875C97 52.875 94.375 50.25 91.375 50.25ZM74.5 50.25H59.5V46.5H74.5V50.25Z" fill="#4F4FEA"/>
</svg>
