<svg width="134" height="129" viewBox="0 0 134 129" fill="none" xmlns="http://www.w3.org/2000/svg">
<ellipse cx="67" cy="64.5" rx="67" ry="64.5" fill="#D9D9D9"/>
<mask id="mask0_2_35" style="mask-type:luminance" maskUnits="userSpaceOnUse" x="37" y="35" width="60" height="60">
<path d="M37 35H97V95H37V35Z" fill="white"/>
</mask>
<g mask="url(#mask0_2_35)">
<path d="M96.2588 54.6743C96.0733 53.9366 95.6895 53.3702 95.1792 53.0794C94.9854 52.9682 94.7702 52.8974 94.5474 52.8715C94.3243 52.8455 94.0985 52.8649 93.8836 52.9285C93.1919 53.1216 92.4164 53.7207 92.6502 55.4785C92.8333 56.8541 92.985 58.2596 93.1319 59.6172C93.1947 60.1967 93.2581 60.7759 93.3223 61.3553C93.0874 65.2093 92.8274 68.684 92.0302 72.1441C90.9888 76.6636 88.8371 80.9239 85.6354 84.8057C83.0381 87.9544 79.7198 89.9057 75.4898 90.7707C71.9892 91.4614 68.3987 91.5989 64.854 91.1782C61.9724 90.8556 58.5941 90.3426 55.3844 88.9845C51.6684 87.4124 49.0383 85.5557 47.1067 83.1412C44.2487 79.5588 42.2057 75.4164 41.1154 70.9939C40.3773 68.1856 40.1806 65.2669 40.5355 62.388C41.0793 58.1514 42.5512 53.9881 45.1673 49.2851C46.0882 47.6252 47.3328 46.1594 48.8302 44.9713C52.4748 42.074 56.0844 40.0843 59.8651 38.8883C62.5537 38.0375 65.5211 37.7701 68.9403 38.071C71.2124 38.2709 73.4205 38.9362 75.5557 39.5798C76.034 39.7239 76.5126 39.8679 76.9923 40.0074L77.2129 40.0731C77.6216 40.2095 78.0433 40.3049 78.4712 40.3578C78.7554 40.3823 79.3447 40.2277 79.4571 39.8979C79.5102 39.7094 79.5209 39.5118 79.4878 39.3189C79.455 39.126 79.3795 38.9425 79.2667 38.7812C78.9771 38.4314 78.6029 38.1585 78.1781 37.9874C76.7509 37.406 75.4598 36.8888 74.1133 36.4488C71.5502 35.6082 68.8635 35.1865 66.1611 35.2007C61.8266 35.2362 57.5735 36.3594 53.8058 38.4635C52.4144 39.2257 51.1847 39.9341 50.0465 40.6291C46.6959 42.6751 44.2611 45.0713 42.6029 47.9549C40.6129 51.4147 39.2382 54.6032 38.3997 57.7019C37.4058 61.3756 37.0488 64.2401 37.2417 66.9889C37.5763 71.747 39.1206 76.4583 41.9647 81.3915C42.9893 83.2134 44.2378 84.9048 45.6823 86.4281C48.7028 89.5596 52.5299 91.7748 57.3796 93.1997C61.1095 94.2992 64.9827 94.8584 68.8771 94.8594C70.5533 94.8591 72.2281 94.7566 73.8916 94.553C80.4192 93.7552 85.4454 90.98 89.2547 86.0688C92.3033 82.1391 94.3226 78.2064 95.4281 74.0469C96.6881 69.3048 97.156 64.14 96.8588 58.2572C96.7788 57.0464 96.5778 55.8464 96.2588 54.6743Z" fill="#4F4FEA"/>
<path d="M71.6454 46.3546C71.913 46.382 72.1806 46.4098 72.4482 46.4343C72.6885 46.4562 73.3292 46.5151 73.5433 45.9035C73.6344 45.6731 73.6309 45.4172 73.534 45.1892C73.4375 44.9611 73.2547 44.7785 73.024 44.6796C72.6009 44.4695 72.1527 44.312 71.6895 44.2106C69.5717 43.7729 67.3959 43.6747 65.2461 43.92C61.236 44.3827 57.8689 45.4019 54.9523 47.0361C51.0775 49.207 48.6804 51.9786 47.6241 55.5106C47.4623 56.0521 47.2449 56.5964 47.0526 57.0767C45.3974 61.1037 44.9849 65.5199 45.8662 69.7754C46.489 72.7835 47.2574 75.2115 48.9831 77.2865C52.9456 82.0501 57.4518 84.7377 62.7591 85.5035C63.9034 85.6683 65.0791 85.7236 66.2137 85.7769C66.7308 85.8012 67.2652 85.8264 67.7882 85.8615H67.8036H67.8092C71.9095 85.7786 75.9354 84.7663 79.5713 82.904C80.4433 82.4776 81.2468 81.9274 81.9554 81.2715C84.1961 79.1095 85.6082 77.0597 86.3989 74.8215C86.5582 74.3701 86.7689 73.9218 86.9727 73.4883C87.0351 73.3552 87.0978 73.2224 87.1589 73.0889C88.9851 69.1171 88.9685 64.7745 87.1085 59.8133C86.9533 59.3961 86.7102 59.016 86.3951 58.6976C86.1926 58.4753 85.933 58.3107 85.6433 58.2209C85.3533 58.1313 85.0447 58.1199 84.7492 58.188C84.4675 58.2765 84.2154 58.4392 84.0213 58.6582C83.8268 58.8772 83.6975 59.1441 83.6468 59.4303C83.522 59.951 83.6144 60.5307 83.6958 61.0422L83.7144 61.1572C83.8092 61.7607 83.924 62.3699 84.0351 62.9594C84.2237 63.9599 84.4189 64.9947 84.5185 66.0165C84.7016 67.7042 84.4713 69.4104 83.8468 70.9929C83.2913 72.4185 82.6623 73.815 81.9623 75.1778C80.8047 77.3674 79.5378 78.8021 77.9737 79.6886C76.7489 80.3836 75.3658 80.8778 74.0282 81.3554L73.5013 81.5445C71.1369 82.3967 68.593 82.3983 66.1182 82.3997H66.0993C62.2937 82.3997 59.3953 81.5745 56.9799 79.8032C56.5864 79.5143 56.1727 79.244 55.7725 78.9827C55.3295 78.6932 54.8715 78.3942 54.4464 78.0729C52.1419 76.3323 50.6361 74.3722 49.8434 72.0783C48.9102 69.3804 47.9335 65.8017 48.6664 62.0416C48.9074 60.915 49.207 59.8015 49.564 58.705C49.781 57.998 50.0051 57.2668 50.1942 56.5384C50.9673 53.5632 52.8411 51.2586 55.9232 49.4935C60.0808 47.1121 64.7289 46.0058 69.7261 46.198C70.3644 46.2228 71.0151 46.2898 71.6454 46.3546Z" fill="#4F4FEA"/>
<path d="M60.8365 57.0481C61.8465 56.479 62.9178 56.0223 64.0308 55.6866C65.1788 55.3511 66.3868 55.1243 67.5549 54.9049C67.8561 54.8481 68.1572 54.7916 68.4574 54.7332C68.8399 54.6589 69.4181 54.5464 69.4299 53.8827C69.439 53.3619 69.0868 53.0126 68.4884 52.948C68.1739 52.9135 67.8574 52.9013 67.5411 52.9115C65.4172 52.9899 63.2809 53.4745 60.8187 54.4373C58.6739 55.2426 56.9268 56.8268 55.9391 58.8619C54.1596 62.4464 54.0542 66.2803 55.6268 70.2568C56.0695 71.3762 56.7356 72.8051 57.967 73.9306C60.7261 76.4519 64.0828 77.7298 67.9446 77.7298C68.1277 77.7298 68.3113 77.7349 68.4951 77.7406C68.6642 77.746 68.8359 77.7517 69.0081 77.7517C69.214 77.7531 69.4199 77.7423 69.6244 77.7187C72.3155 77.3924 74.4223 76.5069 76.0658 75.0109C79.1513 72.2024 80.5465 68.4416 80.2144 63.8323C80.1675 63.1826 79.8417 62.5403 79.5548 61.9741C79.2955 61.463 78.702 61.0728 78.1103 61.3585C77.7096 61.5989 77.4168 61.9793 77.2906 62.4232C77.2137 62.7326 77.1872 63.0521 77.2127 63.3694C77.2168 63.5242 77.2206 63.6705 77.2127 63.8135C77.1927 64.1656 77.1841 64.5236 77.1751 64.8703C77.1768 65.6667 77.1137 66.462 76.9868 67.2484C76.1948 71.3813 73.822 73.8079 69.9353 74.4615C67.197 74.9213 64.5025 74.4207 61.9279 72.9726C60.9351 72.4141 59.9258 71.7541 59.2683 70.7132C57.3465 67.6712 56.8716 64.4325 57.8566 61.087C58.4127 59.1937 59.4164 57.8345 60.8365 57.0481Z" fill="#4F4FEA"/>
<path d="M87.0075 42.9939C87.0402 42.8239 87.0754 42.654 87.1106 42.4843C87.2327 41.9536 87.3202 41.4159 87.3727 40.8744C87.4454 39.9163 86.9934 39.576 86.2402 39.3374C85.9502 39.2369 85.6382 39.214 85.3361 39.2709C85.034 39.3277 84.753 39.4624 84.5209 39.661C82.3882 41.41 80.2371 43.1824 78.1282 44.9288C77.3696 45.5575 77.102 46.3622 77.2916 47.461C77.413 48.1674 77.4885 48.8969 77.5609 49.6024C77.6168 50.1387 77.674 50.6929 77.7513 51.2373C77.8116 51.6649 77.6885 51.9549 77.2978 52.3068L77.1234 52.4638C76.0447 53.4345 74.9296 54.4381 73.8816 55.4761C72.0158 57.3242 70.1345 59.2174 68.3133 61.0483C67.4488 61.9183 66.5833 62.7879 65.7172 63.657C65.098 64.2778 65.2283 64.7558 65.4469 65.0475C65.5276 65.1649 65.6362 65.261 65.7634 65.3278C65.8905 65.3944 66.0324 65.4294 66.1765 65.4298C66.4711 65.4158 66.7542 65.3129 66.9868 65.1349C67.3923 64.8395 67.7764 64.5167 68.1364 64.169C70.2221 62.2363 72.3065 60.3018 74.3896 58.3661L77.7754 55.222C78.1165 54.906 78.3599 54.7535 78.7927 54.771C80.6399 54.8253 82.5175 54.8239 84.3334 54.822C84.8489 54.8211 85.3644 54.8211 85.8802 54.822H85.8844C86.2023 54.8301 86.5175 54.7676 86.8075 54.6391C87.0971 54.5107 87.3533 54.3197 87.5571 54.0803C89.0292 52.4307 90.553 50.7761 91.9799 49.2337C92.6809 48.4762 93.2875 47.6868 93.0158 46.3617C92.7702 45.1705 92.6061 44.6434 91.2409 44.636C90.5282 44.6349 89.8054 44.6719 89.1071 44.7109C88.7116 44.7327 88.3161 44.7547 87.9202 44.7691C87.6009 44.7805 87.2844 44.7781 86.9168 44.775L86.6375 44.7728C86.6661 44.6357 86.6947 44.5013 86.723 44.3695C86.8244 43.8917 86.9199 43.4434 87.0075 42.9939ZM90.3047 47.3734L90.3599 47.3774L86.5389 52.1246H80.1265C80.1078 52.0611 80.0875 51.9965 80.0671 51.9311C79.9737 51.6717 79.914 51.4019 79.8889 51.128C79.8606 50.4032 79.862 49.6628 79.863 48.947C79.863 48.5176 79.8644 48.0882 79.8592 47.6592C79.8537 47.2357 79.9168 46.8974 80.2396 46.6237C81.4471 45.6002 82.6506 44.5712 83.9278 43.4789L85.0061 42.5574C84.9954 42.721 84.9861 42.8399 84.9682 42.9545C84.9165 43.2792 84.8589 43.6031 84.8009 43.927C84.6916 44.5434 84.5778 45.1808 84.5092 45.8161C84.4485 46.3762 84.5285 46.7576 84.7606 47.0149C84.993 47.2722 85.3599 47.3947 85.9223 47.4047C86.744 47.4201 87.5789 47.397 88.3854 47.3754C88.8227 47.3638 89.2602 47.3522 89.6975 47.346C89.8768 47.3456 90.0551 47.3572 90.3044 47.3743L90.3047 47.3734Z" fill="#4F4FEA"/>
</g>
</svg>
