<svg width="91" height="80" viewBox="0 0 91 80" fill="none" xmlns="http://www.w3.org/2000/svg">
<path d="M0 0H91V80H0V0Z" fill="#7C7CD0"/>
<path d="M55.168 38.96C57.7707 39.5147 59.8614 40.816 61.44 42.864C63.0187 44.8694 63.808 47.1734 63.808 49.776C63.808 53.5307 62.4854 56.5174 59.84 58.736C57.2374 60.912 53.5894 62 48.896 62H27.968V17.072H48.192C52.7574 17.072 56.32 18.1174 58.88 20.208C61.4827 22.2987 62.784 25.136 62.784 28.72C62.784 31.3654 62.08 33.5627 60.672 35.312C59.3067 37.0614 57.472 38.2774 55.168 38.96ZM38.912 35.248H46.08C47.872 35.248 49.2374 34.864 50.176 34.096C51.1574 33.2854 51.648 32.112 51.648 30.576C51.648 29.04 51.1574 27.8667 50.176 27.056C49.2374 26.2454 47.872 25.84 46.08 25.84H38.912V35.248ZM46.976 53.168C48.8107 53.168 50.2187 52.7627 51.2 51.952C52.224 51.0987 52.736 49.8827 52.736 48.304C52.736 46.7254 52.2027 45.488 51.136 44.592C50.112 43.696 48.6827 43.248 46.848 43.248H38.912V53.168H46.976Z" fill="white"/>
</svg>
